<svg width="32" height="32" viewBox="0 0 32 32" fill="none" xmlns="http://www.w3.org/2000/svg">
<path d="M25.1042 25.1045C23.5422 26.6666 21.0279 26.6666 15.9997 26.6666C10.9714 26.6666 8.45721 26.6666 6.8951 25.1045C5.33301 23.5425 5.33301 21.0282 5.33301 15.9999C5.33301 10.9716 5.33301 8.45745 6.8951 6.89535C8.45721 5.33325 10.9714 5.33325 15.9997 5.33325C21.0279 5.33325 23.5422 5.33325 25.1042 6.89535C26.6663 8.45745 26.6663 10.9716 26.6663 15.9999C26.6663 21.0282 26.6663 23.5425 25.1042 25.1045Z" stroke="#244975" stroke-width="2" stroke-linecap="round" stroke-linejoin="round"/>
<path d="M10.667 2.66675V5.33341M21.3337 2.66675V5.33341M16.0003 2.66675V5.33341M10.667 26.6667V29.3334M16.0003 26.6667V29.3334M21.3337 26.6667V29.3334M29.3337 21.3334H26.667M5.33366 10.6667H2.66699M5.33366 21.3334H2.66699M5.33366 16.0001H2.66699M29.3337 10.6667H26.667M29.3337 16.0001H26.667" stroke="#244975" stroke-width="2" stroke-linecap="round" stroke-linejoin="round"/>
<path d="M15.3069 10.4826C15.5449 9.83914 16.4551 9.83914 16.6931 10.4826L17.7603 13.3664C17.91 13.7711 18.2289 14.09 18.6336 14.2397L21.5175 15.3069C22.1608 15.5449 22.1608 16.4551 21.5175 16.6931L18.6336 17.7603C18.2289 17.91 17.91 18.2289 17.7603 18.6336L16.6931 21.5175C16.4551 22.1608 15.5449 22.1608 15.3069 21.5175L14.2397 18.6336C14.09 18.2289 13.7711 17.91 13.3664 17.7603L10.4826 16.6931C9.83914 16.4551 9.83914 15.5449 10.4826 15.3069L13.3664 14.2397C13.7711 14.09 14.09 13.7711 14.2397 13.3664L15.3069 10.4826Z" stroke="#244975" stroke-width="2"/>
</svg>
