<svg width="32" height="32" viewBox="0 0 32 32" fill="none" xmlns="http://www.w3.org/2000/svg">
<path d="M23.694 6.65877L19.086 4.88372C17.5565 4.29457 16.7919 4 16.0001 4C15.2083 4 14.4436 4.29457 12.9141 4.88372L8.30588 6.65889C5.43529 7.76468 3.99999 8.31757 4 9.33361C4.00001 10.3497 5.43532 10.9025 8.30595 12.0082L12.9139 13.7831C14.4432 14.3721 15.2077 14.6667 15.9995 14.6667C16.7912 14.6667 17.5557 14.3721 19.0851 13.7832L23.6939 12.0081C26.5647 10.9025 28 10.3496 28 9.33357C28 8.31752 26.5647 7.7646 23.694 6.65877Z" stroke="#244975" stroke-width="2" stroke-linecap="round" stroke-linejoin="round"/>
<path d="M22 12.6731L23.694 13.3256C26.5647 14.4315 28 14.9843 28 16.0005C28 17.0165 26.5647 17.5694 23.6939 18.675L19.0851 20.4501C17.5557 21.039 16.7912 21.3335 15.9995 21.3335C15.2077 21.3335 14.4432 21.039 12.9139 20.4499L8.30595 18.6751C5.43532 17.5694 4.00001 17.0166 4 16.0005C3.99999 14.9845 5.43529 14.4315 8.30588 13.3257L10.0001 12.6731" stroke="#244975" stroke-width="2" stroke-linecap="round" stroke-linejoin="round"/>
<path d="M25.3337 14L11.6815 19.8509M6.66699 18L14.0003 14.6667" stroke="#244975" stroke-width="2" stroke-linecap="round" stroke-linejoin="round"/>
<path d="M22.1803 19.4087L23.694 19.9918C26.5647 21.0976 28 21.6506 28 22.6667C28 23.6827 26.5647 24.2355 23.6939 25.3412L19.0851 27.1163C17.5557 27.7052 16.7912 27.9998 15.9995 27.9998C15.2077 27.9998 14.4432 27.7052 12.9139 27.1162L8.30595 25.3412C5.43532 24.2356 4.00001 23.6827 4 22.6667C3.99999 21.6506 5.43529 21.0978 8.30588 19.9919L9.81968 19.4088" stroke="#244975" stroke-width="2" stroke-linecap="round" stroke-linejoin="round"/>
</svg>
